# AST/ASF file generated using VICON BodyLanguage
# -----------------------------------------------
:version 1.10
:name VICON
:units
  mass 1.0
  length 0.45
  angle deg
:documentation
   .ast/.asf automatically generated from VICON data using
   VICON BodyBuilder and BodyLanguage model FoxedUp or BRILLIANT.MOD
:root
   order TX TY TZ RX RY RZ
   axis XYZ
   position 0 0 0  
   orientation 0 0 0 
:bonedata
  begin
     id 1 
     name lhipjoint
     direction 0.671379 -0.66392 0.329334 
     length 2.38647 
     axis 0 0 0  XYZ
  end
  begin
     id 2 
     name lfemur
     direction 0.34202 -0.939693 0  
     length 6.48179  
     axis 0 0 20  XYZ
    dof rx ry rz
    limits (-160.0 20.0)
           (-70.0 70.0)
           (-60.0 70.0)
  end
  begin
     id 3 
     name ltibia
     direction 0.34202 -0.939693 0   
     length 6.86524   
     axis 0 0 20   XYZ
    dof rx
    limits (-10.0 170.0)
  end
  begin
     id 4 
     name lfoot
     direction 0.204886 -0.562919 0.800715   
     length 1.73031   
     axis -90 7.62852e-016 20   XYZ
    dof rx rz
    limits (-45.0 90.0)
           (-70.0 20.0)
  end
  begin
     id 5 
     name ltoes
     direction 1.53548e-011 -4.21841e-011 1   
     length 0.828161   
     axis -90 7.62852e-016 20   XYZ
    dof rx
    limits (-90.0 20.0)
  end
  begin
     id 6 
     name rhipjoint
     direction -0.662732 -0.670855 0.332775   
     length 2.3618  
     axis 0 0 0  XYZ 
  end
  begin
     id 7 
     name rfemur
     direction -0.34202 -0.939693 0   
     length 6.3025   
     axis 0 0 -20   XYZ
    dof rx ry rz
    limits (-160.0 20.0)
           (-70.0 70.0)
           (-70.0 60.0)
  end
  begin
     id 8 
     name rtibia
     direction -0.34202 -0.939693 0   
     length 6.8732   
     axis 0 0 -20   XYZ
    dof rx
    limits (-10.0 170.0)
 end
 begin
     id 9 
     name rfoot
     direction -0.173856 -0.477665 0.861168   
     length 1.54784  
     axis -90 -7.62852e-016 -20   XYZ
    dof rx rz
    limits (-45.0 90.0)
           (-20.0 70.0)
  end
  begin
     id 10 
     name rtoes
     direction -1.53562e-011 -4.21802e-011 1   
     length 0.759618   
     axis -90 -7.62852e-016 -20   XYZ
    dof rx
    limits (-90.0 20.0)
  end
  begin
     id 11 
     name lowerback
     direction -0.0278357 0.999497 -0.0151789   
     length 1.97203   
     axis 0 0 0   XYZ
    dof rx ry rz
    limits (-20.0 45.0)
           (-30.0 30.0)
           (-30.0 30.0)
  end
  begin
     id 12 
     name upperback
     direction -0.00360622 0.997542 0.0699804   
     length 1.94709   
     axis 0 0 0   XYZ
    dof rx ry rz
    limits (-20.0 45.0)
           (-30.0 30.0)
           (-30.0 30.0)
  end
  begin
     id 13 
     name thorax
     direction 0.00907706 0.997048 0.0762461   
     length 1.95722   
     axis 0 0 0   XYZ
    dof rx ry rz
    limits (-20.0 45.0)
           (-30.0 30.0)
           (-30.0 30.0)
  end
  begin
     id 14 
     name lowerneck
     direction -0.0481835 0.99872 -0.0153927   
     length 1.63078   
     axis 0 0 0   XYZ
    dof rx ry rz
    limits (-20.0 45.0)
           (-30.0 30.0)
           (-30.0 30.0)
  end
  begin
     id 15 
     name upperneck
     direction 0.0859716 0.979226 -0.183644   
     length 1.62591   
     axis 0 0 0   XYZ
    dof rx ry rz
    limits (-20.0 45.0)
           (-30.0 30.0)
           (-30.0 30.0)
  end
  begin
     id 16
     name head
     direction 0.0324821 0.997629 -0.0606773  
     length 1.64811  
     axis 0 0 0   XYZ
    dof rx ry rz
    limits (-20.0 45.0)
           (-30.0 30.0)
           (-30.0 30.0)
  end
  begin
     id 17 
     name lclavicle
     direction 0.939609 0.311019 0.142835  
     length 3.70647  
     axis 0 0 0   XYZ
    dof ry rz
    limits (-20.0 10.0)
           (0.0 20.0)
  end
  begin
     id 18 
     name lhumerus
     direction 1 -4.48963e-011 -1.59838e-027   
     length 4.59207   
     axis 180 -30 -90   XYZ
    dof rx ry rz
    limits (-60.0 90.0)
           (-90.0 90.0)
           (-90.0 90.0)
  end
  begin
     id 19
     name lradius
     direction 1 -4.48957e-011 -1.3483e-026   
     length 2.98109   
     axis 180 -30 -90   XYZ
    dof rx
    limits (-10.0 170.0)
  end
  begin
     id 20
     name lwrist
     direction 1 -4.48954e-011 -3.11579e-026   
     length 1.49055   
     axis 2.00652e-014 90 90   XYZ
    dof ry
    limits (-180.0 0.0)
 end
  begin
     id 21 
     name lhand
     direction 1 -4.4911e-011 -6.23158e-026   
     length 0.480203   
     axis 3.97628e-014 90 90   XYZ
    dof rx rz
    limits (-90.0 90.0)
           (-45.0 45.0)
  end
  begin
     id 22 
     name lfingers
     direction 1 -4.48893e-011 -1.24632e-025   
     length 0.387152   
     axis 7.95256e-014 90 90   XYZ
    dof rx
    limits (0.0 90.0)
  end
  begin
     id 23
     name lthumb
     direction 0.707107 -6.35013e-011 0.707107   
     length 0.555875   
     axis -90 45 2.85299e-015   XYZ
    dof rx rz
    limits (-45.0 45.0)
           (-45.0 45.0)
  end
  begin
     id 24 
     name rclavicle
     direction -0.950396 0.30392 0.0661859   
     length 3.70894  
     axis 0 0 0   XYZ 
    dof ry rz
    limits (-10.0 20.0)
           (-20.0 0.0)
  end
  begin
     id 25 
     name rhumerus
     direction -1 -4.48957e-011 -2.96677e-027  
     length 4.76508   
     axis 180 30 90   XYZ
    dof rx ry rz
    limits (-90.0 60.0)
           (-90.0 90.0)
           (-90.0 90.0)
  end
  begin
     id 26 
     name rradius
     direction -1 -4.48974e-011 -1.44501e-026   
     length 2.78902   
     axis 180 30 90   XYZ
    dof rx
    limits (-10.0 170.0)
  end
  begin
     id 27 
     name rwrist
     direction -1 -4.48978e-011 -3.11579e-026   
     length 1.39451   
     axis 2.00652e-014 -90 -90   XYZ
    dof ry
    limits (-180.0 0.0)
  end
  begin
     id 28
     name rhand
     direction -1 -4.48956e-011 -6.23158e-026   
     length 0.721303   
     axis 3.97628e-014 -90 -90   XYZ
    dof rx rz
    limits (-90.0 90.0)
           (-45.0 45.0)
  end
  begin
     id 29
     name rfingers
     direction -1 -4.4899e-011 -1.24632e-025   
     length 0.581533   
     axis 7.95256e-014 -90 -90   XYZ
    dof rx
    limits (0.0 90.0)
  end
  begin
     id 30
     name rthumb
     direction -0.707107 -6.34911e-011 0.707107   
     length 0.834968   
     axis -90 -45 -2.85299e-015   XYZ
    dof rx rz
    limits (-45.0 45.0)
           (-45.0 45.0)
  end
:hierarchy
  begin
    root lhipjoint rhipjoint lowerback
    lhipjoint lfemur
    lfemur ltibia
    ltibia lfoot
    lfoot ltoes
    rhipjoint rfemur
    rfemur rtibia
    rtibia rfoot
    rfoot rtoes
    lowerback upperback
    upperback thorax
    thorax lowerneck lclavicle rclavicle
    lowerneck upperneck
    upperneck head
    lclavicle lhumerus
    lhumerus lradius
    lradius lwrist
    lwrist lhand lthumb
    lhand lfingers
    rclavicle rhumerus
    rhumerus rradius
    rradius rwrist
    rwrist rhand rthumb
    rhand rfingers
  end

#!OML:ASF I:\salsa\salsa 7_09\Patient 1\Session 1\dancerfemale.ASF
:FULLY-SPECIFIED
:DEGREES
659
root -13.5067 15.4274 4.27694 139.468 -253.982 -585.25
lowerback 12.3386 4.04833 4.54752
upperback -3.00646 6.63124 3.92074
thorax -10.1565 3.08027 0.293373
lowerneck -3.97547 0.275022 3.02027
upperneck 5.49576 0.106206 1.7001
head 2.41848 0.180798 0.0270218
rclavicle 2.13849e-015 3.55576e-014
rhumerus -35.8229 5.17397 -69.5899
rradius 66.4886
rwrist 19.0741
rhand -7.94353 262.859
rfingers 7.12502
rthumb 17.9632 -652.049
lclavicle 2.13849e-015 3.55576e-014
lhumerus -44.143 23.9137 65.2639
lradius 75.2831
lwrist -25.933
lhand -53.8013 -38.2443
lfingers 7.12502
lthumb -26.2331 -10.0375
rfemur 7.05851 0.169967 34.6009
rtibia 8.83289
rfoot 8.23846 -24.6354
rtoes 71.1424
lfemur -39.4014 10.9586 -10.7822
ltibia 69.5862
lfoot -23.8648 3.35191
ltoes -13.6846
660
root -13.5286 15.4134 4.26801 134.134 -254.923 -590.659
lowerback 11.6701 4.16842 4.56873
upperback -2.99421 6.82084 4.46624
thorax -9.82202 3.21383 0.877261
lowerneck -4.05327 -0.306629 2.45861
upperneck 5.58667 -0.625196 1.36078
head 2.45761 -0.205566 -0.0092197
rclavicle -4.11484e-014 -2.92213e-014
rhumerus -35.2799 5.22573 -70.4695
rradius 65.6598
rwrist 18.4727
rhand -7.13063 265.234
rfingers 7.12502
rthumb 18.7452 -654.351
lclavicle -4.11484e-014 -2.92213e-014
lhumerus -43.3308 24.69 64.7419
lradius 75.8203
lwrist -25.836
lhand -53.6339 -38.5084
lfingers 7.12502
lthumb -26.0729 -10.2778
rfemur 6.5384 -1.1056 35.0533
rtibia 9.39076
rfoot 8.44445 -24.7808
rtoes 71.2869
lfemur -39.3462 9.83938 -10.3404
ltibia 70.67
lfoot -23.8166 2.82738
ltoes -14.4344
661
root -13.5426 15.4027 4.25605 128.312 -255.828 -596.353
lowerback 11.4063 4.37012 4.38926
upperback -3.14901 7.14171 5.03331
thorax -9.94342 3.41139 1.53351
lowerneck -3.82991 -0.954407 1.53225
upperneck 5.82719 -1.42925 1.33361
head 2.49774 -0.62444 0.114631
rclavicle -7.97251e-014 -3.22031e-014
rhumerus -35.0707 5.62121 -71.275
rradius 64.8293
rwrist 17.5632
rhand -6.33796 267.587
rfingers 7.12502
rthumb 19.5074 -656.628
lclavicle -7.97251e-014 -3.22031e-014
lhumerus -42.7532 25.3817 64.1865
lradius 76.4176
lwrist -25.9352
lhand -53.5588 -39.5873
lfingers 7.12502
lthumb -26.001 -11.3462
rfemur 6.03011 -2.43116 35.389
rtibia 10.3915
rfoot 8.34822 -25.1271
rtoes 71.3147
lfemur -38.809 8.70749 -10.0642
ltibia 71.5467
lfoot -23.669 2.34733
ltoes -15.603
662
root -13.5527 15.3965 4.23714 122.369 -256.84 -602.259
lowerback 10.9049 4.61352 4.0216
upperback -3.18487 7.44416 5.46373
thorax -9.80467 3.61347 2.1745
lowerneck -3.58264 -1.60883 0.688001
upperneck 5.67384 -2.24811 1.32538
head 2.41069 -1.05417 0.231969
rclavicle -3.37934e-014 -4.85035e-014
rhumerus -34.4496 5.9795 -72.0376
rradius 64.0042
rwrist 16.5545
rhand -5.55907 269.933
rfingers 7.12502
rthumb 20.2562 -658.897
lclavicle -3.37934e-014 -4.85035e-014
lhumerus -41.6602 26.3409 63.772
lradius 77.0948
lwrist -26.2312
lhand -53.7602 -40.4131
lfingers 7.12502
lthumb -26.1937 -12.2004
rfemur 5.14891 -2.51702 35.5663
rtibia 11.9059
rfoot 9.14229 -26.2744
rtoes 71.3552
lfemur -38.1217 7.48995 -10.1109
ltibia 72.1221
lfoot -23.5279 1.62145
ltoes -15.5345
663
root -13.5552 15.3958 4.21388 116.191 -258.13 -608.449
lowerback 10.3216 4.87233 3.35269
upperback -3.22551 7.68318 5.62488
thorax -9.6263 3.78817 2.71417
lowerneck -3.40303 -2.31425 0.0883488
upperneck 5.47892 -3.15001 1.25037
head 2.32593 -1.52112 0.284897
rclavicle 6.71892e-014 1.59028e-014
rhumerus -33.6615 6.27742 -72.9075
rradius 63.1653
rwrist 15.498
rhand -4.91268 447.747
rfingers 7.12502
rthumb 20.8773 -661.15
lclavicle 6.71892e-014 1.59028e-014
lhumerus -40.2226 27.1971 63.2331
lradius 77.7959
lwrist -26.4624
lhand -53.9238 -42.3084
lfingers 7.12502
lthumb -26.3504 -14.1191
rfemur 3.95155 -2.30786 35.2658
rtibia 13.9807
rfoot 10.175 -27.5526
rtoes 71.5041
lfemur -37.2051 6.18978 -10.7248
ltibia 72.2591
lfoot -23.2939 1.06154
ltoes -15.373
664
root -13.549 15.397 4.18923 108.533 -259.552 -615.919
lowerback 10.0302 5.16401 2.41135
upperback -3.31318 7.94038 5.64981
thorax -9.69562 3.97397 3.23039
lowerneck -3.26674 -3.10821 -0.556408
upperneck 5.54071 -4.17686 1.27968
head 2.34496 -2.04467 0.373253
rclavicle 1.0307e-013 5.24792e-014
rhumerus -33.0699 6.61914 -73.7336
rradius 62.4338
rwrist 14.4539
rhand -4.46488 445.397
rfingers 7.12502
rthumb 21.3075 -663.452
lclavicle 1.0307e-013 5.24792e-014
lhumerus -38.6604 27.7715 62.6391
lradius 78.6079
lwrist -26.9777
lhand -54.2738 -42.606
lfingers 7.12502
lthumb -26.6853 -14.4673
rfemur 2.86971 -1.88658 34.6413
rtibia 16.4038
rfoot 11.0648 -29.2686
rtoes 71.5223
lfemur -35.7911 4.81767 -11.7633
ltibia 71.7773
lfoot -23.1059 1.07762
ltoes -16.368
665
root -13.5325 15.4007 4.1609 98.6841 -260.868 -625.509
lowerback 9.67642 5.56654 1.29
upperback -3.27424 8.31826 5.70454
thorax -9.63943 4.23232 3.86539
lowerneck -3.02032 -3.97606 -1.38078
upperneck 5.32612 -5.29959 1.3934
head 2.2707 -2.61986 0.520007
rclavicle 1.11145e-013 7.71285e-014
rhumerus -32.3479 6.94638 -74.1679
rradius 61.8118
rwrist 13.3075
rhand -4.31457 443.209
rfingers 7.12502
rthumb 21.4519 -665.623
lclavicle 1.11145e-013 7.71285e-014
lhumerus -36.7215 28.2957 62.3944
lradius 79.5673
lwrist -27.8061
lhand -54.1759 -43.2473
lfingers 7.12502
lthumb -26.5917 -15.0943
rfemur 1.81911 -1.55176 33.8572
rtibia 19.0449
rfoot 11.694 -31.0525
rtoes 71.4216
lfemur -34.0024 3.50933 -13.0299
ltibia 70.5896
lfoot -23.1491 0.950527
ltoes -19.4193
666
root -13.5056 15.4083 4.11299 82.3373 -261.809 -641.645
lowerback 9.19364 5.77988 0.460566
upperback -3.15813 8.47187 5.72023
thorax -9.36801 4.3619 4.35838
lowerneck -2.64431 -4.82567 -2.4578
upperneck 4.89277 -6.4045 1.74006
head 2.13316 -3.18569 0.789612
rclavicle 2.13942e-014 -3.18055e-015
rhumerus -31.1587 7.22412 -74.3305
rradius 60.955
rwrist 12.3572
rhand -4.46594 441.377
rfingers 7.12502
rthumb 21.3065 -667.472
lclavicle 2.13942e-014 -3.18055e-015
lhumerus -34.353 28.7962 62.4305
lradius 80.4089
lwrist -28.5959
lhand -54.1518 -44.3275
lfingers 7.12502
lthumb -26.5686 -16.171
rfemur 0.683564 -1.77268 32.9748
rtibia 21.8014
rfoot 12.5285 -32.5803
rtoes 71.358
lfemur -32.1776 1.52408 -14.3674
ltibia 68.5379
lfoot -23.6163 0.458323
ltoes -17.1824
667
root -13.4682 15.4228 4.06015 63.6443 -261.922 -660.143
lowerback 8.7521 5.92511 -0.102284
upperback -3.06919 8.55474 5.561
thorax -9.0778 4.42797 4.52835
lowerneck -2.31947 -5.68435 -3.53421
upperneck 4.62175 -7.54141 2.34661
head 2.09158 -3.75932 1.13883
rclavicle -1.6437e-014 -2.14687e-014
rhumerus -29.592 7.38804 -74.5802
rradius 59.8096
rwrist 11.4743
rhand -4.82273 439.729
rfingers 7.12502
rthumb 20.9637 -669.158
lclavicle -1.6437e-014 -2.14687e-014
lhumerus -31.5617 29.1846 62.2877
lradius 81.0306
lwrist -29.3294
lhand -53.8321 -44.2099
lfingers 7.12502
lthumb -26.2626 -16.0075
rfemur -0.688813 -1.84676 32.1677
rtibia 25.0653
rfoot 13.4053 -34.2106
rtoes 71.1909
lfemur -30.1651 -0.502275 -15.6217
ltibia 65.6978
lfoot -25.2899 -0.352925
ltoes -12.7158
668
root -13.4218 15.4646 4.00167 44.2657 -261.44 -679.398
lowerback 8.14526 6.0357 -1.07334
upperback -2.90426 8.53606 5.36636
thorax -8.65737 4.46162 4.92578
lowerneck -1.90869 -6.54057 -4.74277
upperneck 4.30854 -8.6769 2.90158
head 2.04806 -4.33649 1.49921
rclavicle 7.39852e-014 6.36111e-015
rhumerus -27.4968 7.50835 -74.5336
rradius 58.3371
rwrist 10.6992
rhand -5.31749 438.163
rfingers 7.12502
rthumb 20.4883 -670.776
lclavicle 7.39852e-014 6.36111e-015
lhumerus -28.7032 29.5411 62.2802
lradius 81.3939
lwrist -30.1387
lhand -54.4262 -43.3346
lfingers 7.12502
lthumb -26.8312 -15.2181
rfemur -2.45435 -1.88311 30.9497
rtibia 29.0943
rfoot 14.7718 -35.6974
rtoes 70.9934
lfemur -28.0719 -2.16255 -17.4033
ltibia 62.4873
lfoot -26.5941 -1.06388
ltoes -11.5536
669
root -13.3881 15.51 3.93438 27.1714 -260.232 -696.473
lowerback 7.87711 6.09771 -2.1231
upperback -2.85412 8.45659 5.06847
thorax -8.54834 4.46154 5.2306
lowerneck -1.60512 -7.30776 -6.05015
upperneck 4.25371 -9.69276 3.39053
head 2.12797 -4.85635 1.85359
rclavicle 9.88208e-014 1.59028e-014
rhumerus -25.0377 7.57425 -74.2878
rradius 56.5839
rwrist 9.85632
rhand -5.56683 436.702
rfingers 7.12502
rthumb 20.2487 -672.263
lclavicle 9.88208e-014 1.59028e-014
lhumerus -25.9536 29.7834 62.1536
lradius 81.4922
lwrist -30.9789
lhand -54.9515 -42.8412
lfingers 7.12502
lthumb -27.3338 -14.803
rfemur -4.86392 -2.76504 29.2153
rtibia 33.8673
rfoot 15.5512 -36.2424
rtoes 70.8086
lfemur -26.2211 -3.30202 -19.5646
ltibia 59.283
lfoot -26.9252 -1.54694
ltoes -10.9943
